HIERARCHY
ROOT Hips
{
  OFFSET -0.188156 90.7555 -2.36727
  CHANNELS 6 Xposition Yposition Zposition Zrotation Xrotation Yrotation
  JOINT Spine
  {
    OFFSET 0 9.9235 -1.2273
    CHANNELS 6 Xposition Yposition Zposition Zrotation Xrotation Yrotation
    JOINT Spine1
    {
      OFFSET -0.0001 11.6454 -1.4223
      CHANNELS 6 Xposition Yposition Zposition Zrotation Xrotation Yrotation
      JOINT Spine2
      {
        OFFSET 0.0001 13.3602 -1.6265
        CHANNELS 6 Xposition Yposition Zposition Zrotation Xrotation Yrotation
        JOINT Neck
        {
          OFFSET 0 15.0325 0.7929
          CHANNELS 6 Xposition Yposition Zposition Zrotation Xrotation Yrotation
          JOINT Head
          {
            OFFSET 0 10.3218 3.1424
            CHANNELS 6 Xposition Yposition Zposition Zrotation Xrotation Yrotation
            JOINT HeadTop_End
            {
              OFFSET 0.0002 18.4747 6.6364
              CHANNELS 6 Xposition Yposition Zposition Zrotation Xrotation Yrotation
              End Site
              {
                OFFSET 0 0 0
              }
            }
            JOINT LeftEye
            {
              OFFSET 2.9479 7.6817 9.1207
              CHANNELS 6 Xposition Yposition Zposition Zrotation Xrotation Yrotation
              End Site
              {
                OFFSET 0 0 0
              }
            }
            JOINT RightEye
            {
              OFFSET -2.9445 7.6817 9.1205
              CHANNELS 6 Xposition Yposition Zposition Zrotation Xrotation Yrotation
              End Site
              {
                OFFSET 0 0 0
              }
            }
          }
        }
        JOINT LeftShoulder
        {
          OFFSET 6.1058 9.1104 0.7056
          CHANNELS 6 Xposition Yposition Zposition Zrotation Xrotation Yrotation
          JOINT LeftArm
          {
            OFFSET 12.655 -0.2659 -2.6009
            CHANNELS 6 Xposition Yposition Zposition Zrotation Xrotation Yrotation
            JOINT LeftForeArm
            {
              OFFSET 27.4047 0 0
              CHANNELS 6 Xposition Yposition Zposition Zrotation Xrotation Yrotation
              JOINT LeftHand
              {
                OFFSET 27.6145 0 0
                CHANNELS 6 Xposition Yposition Zposition Zrotation Xrotation Yrotation
                JOINT LeftHandMiddle1
                {
                  OFFSET 12.7755 0 0
                  CHANNELS 6 Xposition Yposition Zposition Zrotation Xrotation Yrotation
                  JOINT LeftHandMiddle2
                  {
                    OFFSET 3.614 0 0
                    CHANNELS 6 Xposition Yposition Zposition Zrotation Xrotation Yrotation
                    JOINT LeftHandMiddle3
                    {
                      OFFSET 3.4598 0 0
                      CHANNELS 6 Xposition Yposition Zposition Zrotation Xrotation Yrotation
                      End Site
                      {
                        OFFSET 3.6802 0 0
                      }
                    }
                  }
                }
                JOINT LeftHandThumb1
                {
                  OFFSET 3.7888 -2.167 3.0031
                  CHANNELS 6 Xposition Yposition Zposition Zrotation Xrotation Yrotation
                  JOINT LeftHandThumb2
                  {
                    OFFSET 3.6754 -2.122 2.122
                    CHANNELS 6 Xposition Yposition Zposition Zrotation Xrotation Yrotation
                    JOINT LeftHandThumb3
                    {
                      OFFSET 3.3944 -1.9597 1.9598
                      CHANNELS 6 Xposition Yposition Zposition Zrotation Xrotation Yrotation
                      End Site
                      {
                        OFFSET 2.6794 -1.5469 1.5469
                      }
                    }
                  }
                }
                JOINT LeftHandIndex1
                {
                  OFFSET 12.2666 -0.2317 2.8221
                  CHANNELS 6 Xposition Yposition Zposition Zrotation Xrotation Yrotation
                  JOINT LeftHandIndex2
                  {
                    OFFSET 3.892 0 0
                    CHANNELS 6 Xposition Yposition Zposition Zrotation Xrotation Yrotation
                    JOINT LeftHandIndex3
                    {
                      OFFSET 3.4152 0 0
                      CHANNELS 6 Xposition Yposition Zposition Zrotation Xrotation Yrotation
                      End Site
                      {
                        OFFSET 3.078 0 0
                      }
                    }
                  }
                }
                JOINT LeftHandRing1
                {
                  OFFSET 12.147 0.0099 -2.2166
                  CHANNELS 6 Xposition Yposition Zposition Zrotation Xrotation Yrotation
                  JOINT LeftHandRing2
                  {
                    OFFSET 3.6012 0 0
                    CHANNELS 6 Xposition Yposition Zposition Zrotation Xrotation Yrotation
                    JOINT LeftHandRing3
                    {
                      OFFSET 3.3073 0 0
                      CHANNELS 6 Xposition Yposition Zposition Zrotation Xrotation Yrotation
                      End Site
                      {
                        OFFSET 3.6601 0 0
                      }
                    }
                  }
                }
                JOINT LeftHandPinky1
                {
                  OFFSET 10.9082 -0.2264 -4.7258
                  CHANNELS 6 Xposition Yposition Zposition Zrotation Xrotation Yrotation
                  JOINT LeftHandPinky2
                  {
                    OFFSET 4.1367 0 0
                    CHANNELS 6 Xposition Yposition Zposition Zrotation Xrotation Yrotation
                    JOINT LeftHandPinky3
                    {
                      OFFSET 2.5948 0 0
                      CHANNELS 6 Xposition Yposition Zposition Zrotation Xrotation Yrotation
                      End Site
                      {
                        OFFSET 2.9239 0 0
                      }
                    }
                  }
                }
              }
            }
          }
        }
        JOINT RightShoulder
        {
          OFFSET -6.1057 9.1105 0.7056
          CHANNELS 6 Xposition Yposition Zposition Zrotation Xrotation Yrotation
          JOINT RightArm
          {
            OFFSET -12.655 -0.266 -2.6009
            CHANNELS 6 Xposition Yposition Zposition Zrotation Xrotation Yrotation
            JOINT RightForeArm
            {
              OFFSET -27.4047 0 0
              CHANNELS 6 Xposition Yposition Zposition Zrotation Xrotation Yrotation
              JOINT RightHand
              {
                OFFSET -27.6145 0 0
                CHANNELS 6 Xposition Yposition Zposition Zrotation Xrotation Yrotation
                JOINT RightHandMiddle1
                {
                  OFFSET -12.7755 0 0
                  CHANNELS 6 Xposition Yposition Zposition Zrotation Xrotation Yrotation
                  JOINT RightHandMiddle2
                  {
                    OFFSET -3.614 0 0
                    CHANNELS 6 Xposition Yposition Zposition Zrotation Xrotation Yrotation
                    JOINT RightHandMiddle3
                    {
                      OFFSET -3.4598 0 0
                      CHANNELS 6 Xposition Yposition Zposition Zrotation Xrotation Yrotation
                      End Site
                      {
                        OFFSET -3.6802 0 0
                      }
                    }
                  }
                }
                JOINT RightHandThumb1
                {
                  OFFSET -3.7888 -2.167 3.0031
                  CHANNELS 6 Xposition Yposition Zposition Zrotation Xrotation Yrotation
                  JOINT RightHandThumb2
                  {
                    OFFSET -3.6754 -2.122 2.122
                    CHANNELS 6 Xposition Yposition Zposition Zrotation Xrotation Yrotation
                    JOINT RightHandThumb3
                    {
                      OFFSET -3.3944 -1.9597 1.9598
                      CHANNELS 6 Xposition Yposition Zposition Zrotation Xrotation Yrotation
                      End Site
                      {
                        OFFSET -2.6794 -1.5469 1.5469
                      }
                    }
                  }
                }
                JOINT RightHandIndex1
                {
                  OFFSET -12.2666 -0.2317 2.8221
                  CHANNELS 6 Xposition Yposition Zposition Zrotation Xrotation Yrotation
                  JOINT RightHandIndex2
                  {
                    OFFSET -3.892 0 0
                    CHANNELS 6 Xposition Yposition Zposition Zrotation Xrotation Yrotation
                    JOINT RightHandIndex3
                    {
                      OFFSET -3.4152 0 0
                      CHANNELS 6 Xposition Yposition Zposition Zrotation Xrotation Yrotation
                      End Site
                      {
                        OFFSET -3.078 0 0
                      }
                    }
                  }
                }
                JOINT RightHandRing1
                {
                  OFFSET -12.147 0.0099 -2.2166
                  CHANNELS 6 Xposition Yposition Zposition Zrotation Xrotation Yrotation
                  JOINT RightHandRing2
                  {
                    OFFSET -3.6012 0 0
                    CHANNELS 6 Xposition Yposition Zposition Zrotation Xrotation Yrotation
                    JOINT RightHandRing3
                    {
                      OFFSET -3.3073 0 0
                      CHANNELS 6 Xposition Yposition Zposition Zrotation Xrotation Yrotation
                      End Site
                      {
                        OFFSET -3.6601 0 0
                      }
                    }
                  }
                }
                JOINT RightHandPinky1
                {
                  OFFSET -10.9082 -0.2264 -4.7258
                  CHANNELS 6 Xposition Yposition Zposition Zrotation Xrotation Yrotation
                  JOINT RightHandPinky2
                  {
                    OFFSET -4.1367 0 0
                    CHANNELS 6 Xposition Yposition Zposition Zrotation Xrotation Yrotation
                    JOINT RightHandPinky3
                    {
                      OFFSET -2.5948 0 0
                      CHANNELS 6 Xposition Yposition Zposition Zrotation Xrotation Yrotation
                      End Site
                      {
                        OFFSET -2.9239 0 0
                      }
                    }
                  }
                }
              }
            }
          }
        }
      }
    }
  }
  JOINT RightUpLeg
  {
    OFFSET -9.1245 -6.6564 -0.0554
    CHANNELS 6 Xposition Yposition Zposition Zrotation Xrotation Yrotation
    JOINT RightLeg
    {
      OFFSET -0.2447 -40.5954 -0.5145
      CHANNELS 6 Xposition Yposition Zposition Zrotation Xrotation Yrotation
      JOINT RightFoot
      {
        OFFSET 0.2447 -42.0479 -2.0602
        CHANNELS 6 Xposition Yposition Zposition Zrotation Xrotation Yrotation
        JOINT RightToeBase
        {
          OFFSET -0.3734 -10.4922 12.6407
          CHANNELS 6 Xposition Yposition Zposition Zrotation Xrotation Yrotation
          End Site
          {
            OFFSET 0 0 9.9925
          }
        }
      }
    }
  }
  JOINT LeftUpLeg
  {
    OFFSET 9.1245 -6.6564 -0.0554
    CHANNELS 6 Xposition Yposition Zposition Zrotation Xrotation Yrotation
    JOINT LeftLeg
    {
      OFFSET 0.2447 -40.5954 -0.517
      CHANNELS 6 Xposition Yposition Zposition Zrotation Xrotation Yrotation
      JOINT LeftFoot
      {
        OFFSET -0.2447 -42.048 -2.0576
        CHANNELS 6 Xposition Yposition Zposition Zrotation Xrotation Yrotation
        JOINT LeftToeBase
        {
          OFFSET 0.3734 -10.4922 12.6407
          CHANNELS 6 Xposition Yposition Zposition Zrotation Xrotation Yrotation
          End Site
          {
            OFFSET 0 0 9.9925
          }
        }
      }
    }
  }
}
MOTION
Frames: 4
Frame Time: 0.0166667
-1.01863 95.1117 179.17 0.481659 3.24219 24.1862 0 9.9235 -1.2273 0.420916 7.74447 -1.1139 -0.0001 11.6454 -1.4223 1.20132 15.4759 -2.4072 0.0001 13.3602 -1.6265 1.20132 15.4759 -2.4072 7.10543e-015 15.0325 0.7929 2.05295 3.75958 9.5847 7.10543e-015 10.3218 3.1424 -11.1222 15.2062 3.9913 0.0002 18.4747 6.6364 -6.36111e-015 -9.54166e-015 -3.18055e-015 2.9479 7.6817 9.1207 -6.36111e-015 -9.54166e-015 -3.18055e-015 -2.9445 7.6817 9.1205 -6.36111e-015 -9.54166e-015 -3.18055e-015 6.1058 9.1104 0.7056 -4.24331 0.615993 -1.54585 12.655 -0.2659 -2.6009 1.00304 7.89272 -78.6887 27.4047 2.84217e-014 -1.42109e-014 1.80244 0.960317 -61.9661 27.6145 2.84217e-014 7.10543e-015 -13.3966 12.1485 -2.38398 12.7755 0 0 -62.024 -7.49913 -2.33041 3.614 0 7.10543e-015 -63.0207 -3.31524 0.138718 3.4598 1.42109e-014 -7.10543e-015 1.98785e-015 7.35503e-015 -0 3.7888 -2.167 3.0031 2.07023 -0.151868 4.02827 3.6754 -2.122 2.122 3.16223 6.94124 16.2867 3.3944 -1.9597 1.9598 -9.97681e-005 -0.000577406 -0.00110568 12.2666 -0.2317 2.8221 -46.8163 -8.55362 1.60469 3.892 -2.84217e-014 0 -49.9111 -3.27794 7.26511 3.4152 0 -7.10543e-015 -2.49108e-006 -3.96454e-006 -7.49285e-006 12.147 0.0099 -2.2166 -67.9712 -1.99157 -2.01098 3.6012 0 0 -67.8022 2.38168 -4.74498 3.3073 0 -2.13163e-014 1.59028e-015 -1.30842e-006 -6.36111e-015 10.9082 -0.2264 -4.7258 -77.6912 3.30279 -6.11713 4.1367 -1.42109e-014 0 -74.8116 7.65591 -13.8115 2.5948 -2.84217e-014 7.10543e-015 2.39503e-006 5.2588e-006 2.07096e-006 -6.1057 9.1105 0.7056 8.96415 1.65337 6.55533 -12.655 -0.266 -2.6009 26.67 13.5786 40.4784 -27.4047 0 7.10543e-015 -0.967181 -0.384778 111.712 -27.6145 0 0 -42.5345 29.6358 9.90544 -12.7755 1.42109e-014 -1.42109e-014 19.8195 -2.31573 -5.36041 -3.614 0 1.42109e-014 22.54 0.157542 1.25841 -3.4598 0 0 6.81044e-007 1.59009e-006 1.38684e-006 -3.7888 -2.167 3.0031 -5.55498 -8.28372 -4.88721 -3.6754 -2.122 2.122 0.558344 0.344293 -1.63466 -3.3944 -1.9597 1.9598 9.24156e-005 -0.000587336 0.00109369 -12.2666 -0.2317 2.8221 9.91685 -12.1768 -6.60836 -3.892 0 0 12.5985 -0.126263 -0.952452 -3.4152 0 0 -3.18055e-015 0 3.18055e-015 -12.147 0.0099 -2.2166 26.1415 -1.88148 -9.39774 -3.6012 0 0 24.3706 -0.119816 0.52534 -3.3073 0 1.42109e-014 1.03529e-005 -1.29586e-006 -5.89964e-006 -10.9082 -0.2264 -4.7258 34.2405 2.66659 -15.7839 -4.1367 2.84217e-014 -2.84217e-014 22.1539 0.270003 2.44191 -2.5948 -2.84217e-014 0 1.16987e-006 7.47993e-007 1.22904e-006 -9.1245 -6.6564 -0.0554 -2.29771 -24.2938 -10.0829 -0.2447 -40.5954 -0.5145 2.08058 40.658 -0.9997 0.2447 -42.0479 -2.0602 -1.83757 -16.9592 -13.6506 -0.3734 -10.4922 12.6407 -2.44508 -1.59052 1.96521 9.1245 -6.6564 -0.0554 0.0018149 -23.7962 -8.48599 0.2447 -40.5954 -0.517 -3.08674 54.318 1.79916 -0.2447 -42.048 -2.0576 -3.91236 -8.33397 11.4091 0.3734 -10.4922 12.6407 -4.67393 -12.4697 -1.253 
-1.08241 95.2212 179.992 0.518257 3.7166 24.5619 1.42109e-014 9.9235 -1.2273 0.44764 7.87121 -1.12372 -0.0001 11.6454 -1.4223 1.26394 15.7288 -2.41469 0.0001 13.3602 -1.6265 1.26394 15.7288 -2.41469 0 15.0325 0.7929 2.06404 4.2316 9.38606 7.10543e-015 10.3218 3.1424 -11.1297 14.6114 3.62197 0.0002 18.4747 6.6364 -3.18055e-015 6.36111e-015 3.18055e-015 2.9479 7.6817 9.1207 -3.18055e-015 6.36111e-015 3.18055e-015 -2.9445 7.6817 9.1205 -3.18055e-015 6.36111e-015 3.18055e-015 6.1058 9.1104 0.7056 -4.1465 0.597013 -1.4245 12.655 -0.2659 -2.6009 0.979691 7.33892 -79.4715 27.4047 0 0 1.89138 1.0281 -61.4881 27.6145 2.84217e-014 7.10543e-015 -13.5319 12.0161 -2.88189 12.7755 0 -7.10543e-015 -62.024 -7.49914 -2.33043 3.614 0 1.42109e-014 -63.0207 -3.31525 0.138735 3.4598 1.42109e-014 0 2.38542e-015 5.1684e-015 3.18055e-015 3.7888 -2.167 3.0031 2.07022 -0.151866 4.02825 3.6754 -2.122 2.122 3.16223 6.94123 16.2867 3.3944 -1.9597 1.9598 -9.97681e-005 -0.000577406 -0.00110568 12.2666 -0.2317 2.8221 -46.8163 -8.55362 1.60469 3.892 0 -7.10543e-015 -49.9111 -3.27793 7.26508 3.4152 1.42109e-014 0 -2.49108e-006 -3.96454e-006 -7.49285e-006 12.147 0.0099 -2.2166 -67.9712 -1.99157 -2.01099 3.6012 -1.42109e-014 -7.10543e-015 -67.8022 2.38169 -4.74497 3.3073 0 1.42109e-014 -7.26321e-023 -1.30842e-006 -3.18055e-015 10.9082 -0.2264 -4.7258 -77.6912 3.30279 -6.11712 4.1367 0 0 -74.8116 7.65591 -13.8115 2.5948 0 0 2.39503e-006 5.2588e-006 2.07096e-006 -6.1057 9.1105 0.7056 8.92665 1.64195 6.50676 -12.655 -0.266 -2.6009 25.7213 13.1864 41.3985 -27.4047 0 7.10543e-015 -1.01205 -0.390985 111.14 -27.6145 0 -1.42109e-014 -40.5646 29.3105 9.22612 -12.7755 0 -1.42109e-014 17.9406 -4.6106 -5.90096 -3.614 0 -2.84217e-014 20.228 -2.58406 -0.0541842 -3.4598 0 0 6.81044e-007 1.59009e-006 1.38684e-006 -3.7888 -2.167 3.0031 -5.13527 -7.83697 -4.01154 -3.6754 -2.122 2.122 0.558345 0.34429 -1.63466 -3.3944 -1.9597 1.9598 9.24156e-005 -0.000587336 0.00109369 -12.2666 -0.2317 2.8221 9.91739 -12.1768 -6.60829 -3.892 0 -1.42109e-014 13.3416 -2.791 -2.2339 -3.4152 0 1.42109e-014 7.06225e-031 -6.36111e-015 6.36111e-015 -12.147 0.0099 -2.2166 23.2593 -4.64975 -10.2512 -3.6012 0 -1.42109e-014 23.1493 -2.81362 -0.74751 -3.3073 0 0 1.03529e-005 -1.29586e-006 -5.89964e-006 -10.9082 -0.2264 -4.7258 28.6721 -1.45614 -16.3952 -4.1367 0 0 21.9223 -2.42327 1.08839 -2.5948 0 0 1.16987e-006 7.47993e-007 1.22904e-006 -9.1245 -6.6564 -0.0554 -2.38285 -24.0389 -10.4971 -0.2447 -40.5954 -0.5145 2.05955 40.3823 -0.999631 0.2447 -42.0479 -2.0602 -2.08415 -17.1225 -13.6925 -0.3734 -10.4922 12.6407 -2.33638 -1.89437 1.9515 9.1245 -6.6564 -0.0554 -0.622297 -25.4256 -8.00915 0.2447 -40.5954 -0.517 -3.06794 54.121 1.74395 -0.2447 -42.048 -2.0576 -3.68189 -8.45041 11.4009 0.3734 -10.4922 12.6407 -3.92964 -11.0886 -1.63819 
-1.09456 95.345 180.818 0.549114 4.24497 24.9891 0 9.9235 -1.2273 0.487252 7.99517 -1.14679 -0.0001 11.6454 -1.4223 1.34847 15.9758 -2.44802 0.0001 13.3602 -1.6265 1.34846 15.9758 -2.44802 0 15.0325 0.7929 2.03417 4.62492 9.19736 7.10543e-015 10.3218 3.1424 -11.1086 14.0458 3.24356 0.0002 18.4747 6.6364 3.18055e-015 -6.36111e-015 -6.36111e-015 2.9479 7.6817 9.1207 3.18055e-015 -6.36111e-015 -6.36111e-015 -2.9445 7.6817 9.1205 3.18055e-015 -6.36111e-015 -6.36111e-015 6.1058 9.1104 0.7056 -4.08828 0.580728 -1.31148 12.655 -0.2659 -2.6009 0.994263 6.80977 -80.2116 27.4047 -2.84217e-014 -1.42109e-014 1.9848 1.09768 -61.0712 27.6145 -2.84217e-014 0 -13.6412 11.8474 -3.40524 12.7755 2.84217e-014 -7.10543e-015 -62.024 -7.49913 -2.33041 3.614 0 7.10543e-015 -63.0207 -3.31523 0.138713 3.4598 -1.42109e-014 7.10543e-015 5.1684e-015 -1.39149e-015 -0 3.7888 -2.167 3.0031 2.07021 -0.151878 4.02825 3.6754 -2.122 2.122 3.16222 6.94125 16.2868 3.3944 -1.9597 1.9598 -9.97681e-005 -0.000577406 -0.00110568 12.2666 -0.2317 2.8221 -46.8163 -8.55363 1.60469 3.892 0 0 -49.9111 -3.27792 7.26509 3.4152 1.42109e-014 0 -2.49108e-006 -3.96454e-006 -7.49285e-006 12.147 0.0099 -2.2166 -67.9712 -1.99157 -2.01099 3.6012 1.42109e-014 -7.10543e-015 -67.8022 2.38168 -4.74496 3.3073 0 0 -7.26321e-023 -1.30842e-006 -3.18055e-015 10.9082 -0.2264 -4.7258 -77.6912 3.30281 -6.11713 4.1367 0 0 -74.8116 7.65588 -13.8115 2.5948 0 0 2.39503e-006 5.2588e-006 2.07096e-006 -6.1057 9.1105 0.7056 8.9133 1.63528 6.47361 -12.655 -0.266 -2.6009 24.8779 12.7668 42.4803 -27.4047 0 7.10543e-015 -1.06452 -0.391077 110.188 -27.6145 0 1.42109e-014 -37.7146 28.8548 8.50986 -12.7755 0 1.42109e-014 15.4987 -7.52847 -6.71217 -3.614 0 0 17.2029 -6.01639 -1.89574 -3.4598 -2.84217e-014 0 6.81044e-007 1.59009e-006 1.38684e-006 -3.7888 -2.167 3.0031 -4.43426 -6.95011 -2.31995 -3.6754 -2.122 2.122 0.558342 0.344308 -1.63466 -3.3944 -1.9597 1.9598 9.24156e-005 -0.000587336 0.00109369 -12.2666 -0.2317 2.8221 9.91684 -12.1768 -6.60837 -3.892 -2.84217e-014 0 14.2133 -6.23913 -3.83351 -3.4152 0 0 -6.36111e-015 -3.18055e-015 3.18055e-015 -12.147 0.0099 -2.2166 19.5244 -8.13169 -11.5541 -3.6012 0 0 21.4622 -6.23278 -2.46946 -3.3073 0 1.42109e-014 1.03529e-005 -1.29586e-006 -5.89964e-006 -10.9082 -0.2264 -4.7258 21.6903 -6.49504 -17.7625 -4.1367 0 1.42109e-014 21.5255 -5.83708 -0.611469 -2.5948 -2.84217e-014 -1.42109e-014 1.16987e-006 7.47993e-007 1.22904e-006 -9.1245 -6.6564 -0.0554 -2.51796 -23.7707 -10.9339 -0.2447 -40.5954 -0.5145 2.03146 40.0188 -1.01019 0.2447 -42.0479 -2.0602 -2.29428 -17.2826 -13.7831 -0.3734 -10.4922 12.6407 -2.22126 -2.17742 1.98633 9.1245 -6.6564 -0.0554 -1.38206 -26.8993 -7.65483 0.2447 -40.5954 -0.517 -2.96113 53.1535 1.61295 -0.2447 -42.048 -2.0576 -3.30037 -8.68553 11.1976 0.3734 -10.4922 12.6407 -3.06538 -9.75544 -1.94597 
-1.03144 95.499 181.627 0.686169 4.8713 25.4405 0 9.9235 -1.2273 0.517176 8.10892 -1.17732 -0.0001 11.6454 -1.4223 1.41063 16.2026 -2.49309 0.0001 13.3602 -1.6265 1.41063 16.2026 -2.49309 -7.10543e-015 15.0325 0.7929 1.97962 5.02487 9.01415 -1.42109e-014 10.3218 3.1424 -11.0871 13.4591 2.87078 0.0002 18.4747 6.6364 -3.18055e-015 -6.36111e-015 -1.59028e-015 2.9479 7.6817 9.1207 -3.18055e-015 -6.36111e-015 -1.59028e-015 -2.9445 7.6817 9.1205 -3.18055e-015 -6.36111e-015 -1.59028e-015 6.1058 9.1104 0.7056 -3.99182 0.563118 -1.19915 12.655 -0.2659 -2.6009 1.18093 6.27019 -80.9739 27.4047 -2.84217e-014 -7.10543e-015 1.96542 1.10681 -60.6302 27.6145 0 0 -13.6029 11.6427 -4.04571 12.7755 2.84217e-014 0 -62.024 -7.49914 -2.33042 3.614 0 0 -63.0207 -3.31524 0.138718 3.4598 1.42109e-014 -7.10543e-015 1.59028e-015 6.16232e-015 6.36111e-015 3.7888 -2.167 3.0031 2.07023 -0.151866 4.02826 3.6754 -2.122 2.122 3.16222 6.94123 16.2867 3.3944 -1.9597 1.9598 -9.97681e-005 -0.000577406 -0.00110568 12.2666 -0.2317 2.8221 -46.8163 -8.55363 1.60469 3.892 -2.84217e-014 7.10543e-015 -49.9111 -3.27793 7.26508 3.4152 0 -7.10543e-015 -2.49108e-006 -3.96454e-006 -7.49285e-006 12.147 0.0099 -2.2166 -67.9712 -1.99156 -2.01098 3.6012 -2.84217e-014 0 -67.8022 2.38167 -4.74497 3.3073 0 7.10543e-015 -6.36111e-015 -1.30842e-006 -3.18055e-015 10.9082 -0.2264 -4.7258 -77.6912 3.30279 -6.11713 4.1367 0 0 -74.8116 7.65592 -13.8115 2.5948 -2.84217e-014 7.10543e-015 2.39503e-006 5.2588e-006 2.07096e-006 -6.1057 9.1105 0.7056 8.93234 1.64013 6.49262 -12.655 -0.266 -2.6009 23.976 12.3122 43.6805 -27.4047 2.84217e-014 0 -1.1256 -0.386058 108.945 -27.6145 -2.84217e-014 -1.42109e-014 -34.2732 28.302 7.70776 -12.7755 0 0 12.9097 -10.4676 -7.46503 -3.614 2.84217e-014 0 13.8105 -9.52321 -3.64582 -3.4598 0 1.42109e-014 6.81044e-007 1.59009e-006 1.38684e-006 -3.7888 -2.167 3.0031 -3.34024 -5.38139 0.499189 -3.6754 -2.122 2.122 0.558337 0.34429 -1.63465 -3.3944 -1.9597 1.9598 9.24156e-005 -0.000587336 0.00109369 -12.2666 -0.2317 2.8221 9.90075 -12.1751 -6.61108 -3.892 0 -1.42109e-014 14.776 -9.67462 -5.53015 -3.4152 -2.84217e-014 0 -3.18055e-015 -3.18055e-015 -0 -12.147 0.0099 -2.2166 15.5172 -11.6091 -12.7434 -3.6012 0 -1.42109e-014 19.3576 -9.70666 -4.16817 -3.3073 5.68434e-014 0 1.03529e-005 -1.29586e-006 -5.89964e-006 -10.9082 -0.2264 -4.7258 14.3891 -11.2917 -18.6769 -4.1367 0 -1.42109e-014 20.7337 -9.27048 -2.29508 -2.5948 0 -7.10543e-015 1.16987e-006 7.47993e-007 1.22904e-006 -9.1245 -6.6564 -0.0554 -2.8651 -23.5169 -11.3656 -0.2447 -40.5954 -0.5145 2.00097 39.628 -1.03153 0.2447 -42.0479 -2.0602 -2.25068 -17.5479 -13.8772 -0.3734 -10.4922 12.6407 -2.28286 -2.28232 2.00833 9.1245 -6.6564 -0.0554 -2.44723 -28.0724 -7.53339 0.2447 -40.5954 -0.517 -2.75766 51.2202 1.40566 -0.2447 -42.048 -2.0576 -3.187 -8.8883 10.8178 0.3734 -10.4922 12.6407 -1.82251 -8.59183 -1.98535 
